# xmcd
#
# Track frame offsets:
#	150
#	12240
#	24441
#	36711
#	47747
#	58479
#	70633
#	81649
#	96252
#	106821
#	117218
#	128573
#	139844
#	154322
#	167478
#	178882
#	188149
#	199077
#	209100
#	219622
#	229120
#	242564
#	253312
#	269397
#	282462
#	294716
#	306894
#	317375
#
# Disc length: 4404 seconds
#
# Revision: 0
# Processed by: cddbd v1.4PL0 Copyright (c) Steve Scherf et al.
# Submitted via: EasyCDDAExtractor 4.6.0.1
#
DISCID=b311321c
DTITLE=Various Artist - A Million Dollars Worth Of Doo-Wop  Vol 16
DYEAR=1900
DGENRE=Blues
TTITLE0=Five Crowns - Popcorn Willie
TTITLE1=Five Crowns - I Can't Pretend
TTITLE2=Roy Tyson and group - Oh What A Night For Love
TTITLE3=Roy Tyson and group - I'm Not Too Young To Sing The Blues
TTITLE4=Flaming Hearts - I Don't Mind
TTITLE5=Flaming Hearts - Baby
TTITLE6=Blenders - Soda Shop
TTITLE7=Plants - Dear I Swear
TTITLE8=Plants - It's You
TTITLE9=Little Blue Boys (Ronnie and The) - You Better Run
TTITLE10=Seniors - May I Have This Dance
TTITLE11=Vanguards (Buddy Gibson and the) - Just A Game
TTITLE12=Pirates - Mind Over Matter
TTITLE13=Pirates - I'll Love You Till I Die
TTITLE14=Bel Larks - A Million And One Dreams
TTITLE15=Empires - Sittin' On Top Of The World
TTITLE16=Dandevilles - There's A Reason
TTITLE17=Dandevilles - Nasty Breaks
TTITLE18=Five Crowns (Dr. Rock and the) - One Way Of Living
TTITLE19=Five Crowns (Dr. Rock and the) - That's What You Do To Me
TTITLE20=Smoothtones - Bring Back Your Love To Me
TTITLE21=Smoothtones - No Doubt About It
TTITLE22=Teardrops - Come Back To Me
TTITLE23=Teardrops - Sweet Lovin' Daddy-O
TTITLE24=Brooklyn Boys - If She Should Call
TTITLE25=Brooklyn Boys - Every Night
TTITLE26=Lee Maye and group - All I Want Is Someone To love
TTITLE27=Five Quails - Get To School On Time
EXTD=
EXTT0=
EXTT1=
EXTT2=
EXTT3=
EXTT4=
EXTT5=
EXTT6=
EXTT7=
EXTT8=
EXTT9=
EXTT10=
EXTT11=
EXTT12=
EXTT13=
EXTT14=
EXTT15=
EXTT16=
EXTT17=
EXTT18=
EXTT19=
EXTT20=
EXTT21=
EXTT22=
EXTT23=
EXTT24=
EXTT25=
EXTT26=
EXTT27=
PLAYORDER=
